<svg width="380" height="259" viewBox="0 0 380 259" fill="none" xmlns="http://www.w3.org/2000/svg">
<path fill-rule="evenodd" clip-rule="evenodd" d="M22.6204 14.4282L97.1376 89.737L333.962 99.6667L337.92 99.8326L339.587 103.426L354.232 135H339.902L329.46 112.489L105.858 103.114L130 144.907V170.897L89.104 100.101L13.3796 23.5718L22.6204 14.4282Z" fill="#00ADEF"/>
<path d="M155.114 225.816C148.79 225.816 144.064 223.606 140.936 219.186C137.876 214.698 136.346 207.932 136.346 198.888V161.148C136.346 153.056 138.148 146.936 141.752 142.788C145.356 138.64 150.728 136.566 157.868 136.566C163.648 136.566 168.136 137.722 171.332 140.034C174.528 142.346 176.738 145.712 177.962 150.132C179.186 154.552 179.798 160.23 179.798 167.166H162.662V159.312C162.662 157.204 162.356 155.572 161.744 154.416C161.2 153.26 160.18 152.682 158.684 152.682C155.352 152.682 153.686 154.858 153.686 159.21V201.642C153.686 204.294 154.026 206.3 154.706 207.66C155.386 209.02 156.576 209.7 158.276 209.7C159.976 209.7 161.166 209.02 161.846 207.66C162.526 206.3 162.866 204.294 162.866 201.642V189.096H158.174V174H179.594V225H172.556L169.598 217.656C166.47 223.096 161.642 225.816 155.114 225.816ZM207.169 225.816C199.485 225.816 193.977 223.708 190.645 219.492C187.313 215.276 185.647 208.986 185.647 200.622V170.634C185.647 163.766 187.619 158.53 191.563 154.926C195.507 151.322 201.015 149.52 208.087 149.52C222.435 149.52 229.609 156.558 229.609 170.634V176.04C229.609 181.48 229.541 185.9 229.405 189.3H203.497V203.784C203.497 206.368 203.769 208.408 204.313 209.904C204.857 211.332 206.013 212.046 207.781 212.046C209.141 212.046 210.093 211.638 210.637 210.822C211.249 210.006 211.589 209.088 211.657 208.068C211.793 206.98 211.861 205.416 211.861 203.376V196.134H229.609V200.418C229.609 209.122 227.909 215.548 224.509 219.696C221.177 223.776 215.397 225.816 207.169 225.816ZM211.861 180.426V170.838C211.861 165.466 210.535 162.78 207.883 162.78C204.891 162.78 203.395 165.466 203.395 170.838V180.426H211.861ZM256.77 225.816C250.378 225.816 245.244 223.81 241.368 219.798C237.56 215.786 235.656 210.278 235.656 203.274V162.882C235.656 154.178 237.39 147.616 240.858 143.196C244.326 138.776 249.766 136.566 257.178 136.566C263.638 136.566 268.84 138.334 272.784 141.87C276.728 145.406 278.7 150.506 278.7 157.17V172.266H261.258V159.312C261.258 156.796 260.952 155.062 260.34 154.11C259.728 153.158 258.674 152.682 257.178 152.682C255.614 152.682 254.526 153.226 253.914 154.314C253.37 155.402 253.098 157 253.098 159.108V203.07C253.098 205.382 253.438 207.082 254.118 208.17C254.798 209.19 255.818 209.7 257.178 209.7C259.898 209.7 261.258 207.49 261.258 203.07V187.26H278.904V203.784C278.904 218.472 271.526 225.816 256.77 225.816ZM282.335 225L290.801 137.382H320.483L328.847 225H312.221L310.997 210.822H300.389L299.369 225H282.335ZM301.715 196.848H309.671L305.795 152.274H304.979L301.715 196.848ZM331.841 225L340.307 137.382H369.989L378.353 225H361.727L360.503 210.822H349.895L348.875 225H331.841ZM351.221 196.848H359.177L355.301 152.274H354.485L351.221 196.848Z" fill="#111111"/>
<circle cx="18" cy="18" r="18" fill="#00ADEF"/>
</svg>
